<?xml version="1.0" encoding="UTF-8"?>
<svg id="tennis-com-desktop-logo" viewBox="0 0 355 69" version="1.1" xmlns="http://www.w3.org/2000/svg" xmlns:xlink="http://www.w3.org/1999/xlink">
    <g stroke="none" stroke-width="1" fill="none" fill-rule="evenodd">
        <g transform="translate(-120.000000, -590.000000)">
            <g transform="translate(120.000000, 590.000000)">
                <path d="M142.34382,12.7928264 C160.343299,12.7928264 168.587815,26.7945813 168.587815,42.1053418 L168.587815,42.1053418 L168.587815,42.3064963 C168.587815,43.817657 168.486919,44.7243535 168.387022,46.1344366 L168.387022,46.1344366 L130.881615,46.1344366 C132.391061,53.0847753 137.218094,56.7115611 144.05406,56.7115611 C149.181784,56.7115611 152.901956,55.0993227 157.12561,51.1713055 L157.12561,51.1713055 L165.873608,58.927263 C160.845782,65.1720597 153.606231,69 143.853267,69 C127.663926,69 115.700236,57.6172567 115.700236,41.0985685 L115.700236,41.0985685 L115.700236,40.8964132 C115.700236,25.4845751 126.65896,12.7928264 142.34382,12.7928264 Z M333.684933,12.9939809 C340.521898,12.9939809 347.96424,15.3107604 353.793242,19.2387776 L353.793242,19.2387776 L347.96424,29.8159021 C342.634724,26.6935037 337.305208,24.7790332 333.384242,24.7790332 C329.66407,24.7790332 327.753037,26.3912716 327.753037,28.5068966 L327.753037,28.5068966 L327.753037,28.7080511 C327.753037,31.7303726 332.88076,33.1394549 338.712759,35.1550031 C346.253001,37.6729372 355,41.299723 355,51.1713055 L355,51.1713055 L355,51.37246 C355,63.3586668 346.052207,68.7988455 334.389208,68.7988455 C326.846969,68.7988455 318.401659,66.2799107 311.261007,60.6395782 L311.261007,60.6395782 L317.79828,50.5658404 C323.630279,54.7970905 329.763968,57.0127924 334.791794,57.0127924 C339.215242,57.0127924 341.226173,55.4015548 341.226173,52.9836976 L341.226173,52.9836976 L341.226173,52.7825431 C341.226173,49.4589902 335.997553,48.3511393 330.066656,46.5377464 C329.882699,46.4836805 329.698144,46.4288358 329.51313,46.3731307 L328.956848,46.2033516 C321.710882,43.9605336 313.977212,40.2843089 313.977212,30.3192887 L313.977212,30.3192887 L313.977212,30.1181342 C313.977212,19.1387007 322.826106,12.9939809 333.684933,12.9939809 Z M43.4923,25.2797 L68.7813,28.6907 L68.7813,68.7827 L31.1543,68.7827 L43.4923,25.2797 Z M100.718652,0 L100.718652,13.8006005 L113.387616,13.8006005 L113.387616,26.8946582 L100.718652,26.8946582 L100.718652,49.9613761 C100.718652,53.4880851 102.226101,55.2004003 105.644583,55.2004003 C108.460685,55.2004003 110.974099,54.4948584 113.185823,53.2869305 L113.185823,53.2869305 L113.185823,65.5753695 C109.968134,67.4888393 106.248961,68.6977679 101.121238,68.6977679 C91.76986,68.6977679 85.4353781,64.9709052 85.4353781,52.480311 L85.4353781,52.480311 L85.4353781,26.8946582 L79,26.8946582 L79,13.8006005 L85.4353781,13.8006005 L85.4353781,0 L100.718652,0 Z M306.135281,13.8006005 L306.135281,67.7920722 L290.852007,67.7920722 L290.852007,13.8006005 L306.135281,13.8006005 Z M205.992327,12.7928264 C217.555428,12.7928264 224.292496,20.448707 224.292496,32.8382236 L224.292496,32.8382236 L224.292496,67.7910714 L209.008223,67.7910714 L209.008223,37.6729372 C209.008223,30.4203664 205.589741,26.6935037 199.758741,26.6935037 C193.924744,26.6935037 190.20657,30.4203664 190.20657,37.6729372 L190.20657,37.6729372 L190.20657,67.7910714 L174.922297,67.7910714 L174.922297,13.8006005 L190.20657,13.8006005 L190.20657,21.4554803 C193.72495,16.9229988 198.249294,12.7928264 205.992327,12.7928264 Z M263.605044,12.7928264 C275.167147,12.7928264 281.905213,20.448707 281.905213,32.8382236 L281.905213,32.8382236 L281.905213,67.7910714 L266.62194,67.7910714 L266.62194,37.6729372 C266.62194,30.4203664 263.203457,26.6935037 257.370459,26.6935037 C251.539459,26.6935037 247.819287,30.4203664 247.819287,37.6729372 L247.819287,37.6729372 L247.819287,67.7910714 L232.536014,67.7910714 L232.536014,13.8006005 L247.819287,13.8006005 L247.819287,21.4554803 C251.338666,16.9229988 255.863011,12.7928264 263.605044,12.7928264 Z M142.34382,25.0822661 C136.011336,25.0822661 131.888578,29.6147476 130.68182,36.5650862 L130.68182,36.5650862 L153.707127,36.5650862 C152.803058,29.7148244 148.779198,25.0822661 142.34382,25.0822661 Z M68.7813,2.66453526e-15 L68.7813,14.064 L0.0003,5.022 L0.0003,2.66453526e-15 L68.7813,2.66453526e-15 Z" id="Combined-Shape" fill="#66CC33"></path>
                <polygon fill="#071218" points="-5.32907052e-15 19.6572 -5.32907052e-15 68.7822 16.093 68.7822 28.938 23.4282"></polygon>
            </g>
        </g>
    </g>
</svg>